<?xml version="1.0" encoding="UTF-8"?><svg id="a" xmlns="http://www.w3.org/2000/svg" viewBox="0 0 48 48"><rect x="6" y="6" width="36" height="36" rx="1.26" ry="1.26" fill="#695c9b" stroke="#231f20" stroke-miterlimit="10" stroke-width=".25"/><polygon points="35.51 20.95 35.51 35.51 26.02 35.51 26.02 37.97 37.97 37.97 37.97 35.51 37.97 20.95 35.51 20.95" fill="#bfbefc" stroke="#231f20" stroke-miterlimit="10" stroke-width=".25"/><polygon points="12.49 35.51 12.49 20.95 10.03 20.95 10.03 35.51 10.03 37.97 21.98 37.97 21.98 35.51 12.49 35.51" fill="#ddd2af" stroke="#231f20" stroke-miterlimit="10" stroke-width=".25"/><polygon points="21.98 26.08 21.98 14.07 21.98 10.03 10.2 10.03 10.03 10.03 10.03 14.07 10.2 14.07 17.95 14.07 17.95 29.9 17.96 29.9 17.96 31.48 21.99 31.48 21.99 26.08 21.98 26.08" fill="#bfbefc" stroke="#231f20" stroke-miterlimit="10" stroke-width=".25"/><polygon points="37.8 10.03 26.02 10.03 26.02 14.07 26.02 26.19 26.01 26.19 26.01 31.59 30.04 31.59 30.04 29.9 30.05 29.9 30.05 14.07 37.8 14.07 37.97 14.07 37.97 10.03 37.8 10.03" fill="#ddd2af" stroke="#231f20" stroke-miterlimit="10" stroke-width=".25"/></svg>